<svg width="104" height="26" viewBox="0 0 104 26" fill="none" xmlns="http://www.w3.org/2000/svg">
<path d="M11.5 1.5L15.4195 9.08051L23 13L15.4195 16.9195L11.5 24.5L7.58051 16.9195L0 13L7.58051 9.08051L11.5 1.5Z" fill="white"/>
<path d="M31.092 7.678V22H30.0008V7.2688C30.0008 6.39584 29.8098 5.72293 29.4279 5.25008C29.0642 4.77723 28.4367 4.5408 27.5456 4.5408H27.2728V3.9952H29.046C29.8826 3.9952 30.5919 4.1316 31.1738 4.4044C31.7558 4.6772 32.2741 5.0864 32.7288 5.632L42.2768 17.4988V3.9952H43.368V22.2728H42.8224L31.092 7.678ZM51.3538 22.2728C50.1171 22.2728 49.0441 21.9818 48.1348 21.3998C47.2254 20.7997 46.5343 19.9904 46.0615 18.9719C45.5886 17.9535 45.3522 16.8259 45.3522 15.5892C45.3522 14.3525 45.5886 13.2249 46.0615 12.2065C46.5343 11.188 47.2254 10.3878 48.1348 9.80584C49.0441 9.20568 50.1171 8.9056 51.3538 8.9056C52.5905 8.9056 53.6635 9.20568 54.5728 9.80584C55.4822 10.3878 56.1733 11.188 56.6461 12.2065C57.119 13.2249 57.3554 14.3525 57.3554 15.5892C57.3554 16.8259 57.119 17.9535 56.6461 18.9719C56.1733 19.9904 55.4822 20.7997 54.5728 21.3998C53.6635 21.9818 52.5905 22.2728 51.3538 22.2728ZM51.3538 21.1816C52.0267 21.1816 52.6178 20.9361 53.127 20.445C53.6544 19.954 54.0545 19.2811 54.3273 18.4263C54.6183 17.5715 54.7638 16.6258 54.7638 15.5892C54.7638 14.5526 54.6183 13.6069 54.3273 12.7521C54.0545 11.8973 53.6544 11.2244 53.127 10.7334C52.6178 10.2423 52.0267 9.9968 51.3538 9.9968C50.6809 9.9968 50.0807 10.2423 49.5533 10.7334C49.0441 11.2244 48.644 11.8973 48.353 12.7521C48.0802 13.6069 47.9438 14.5526 47.9438 15.5892C47.9438 16.6258 48.0802 17.5715 48.353 18.4263C48.644 19.2811 49.0441 19.954 49.5533 20.445C50.0807 20.9361 50.6809 21.1816 51.3538 21.1816ZM59.5808 12.3156C59.1444 11.2971 58.7261 10.5879 58.326 10.1878C57.9259 9.76947 57.3984 9.54213 56.7437 9.50576V8.96016C56.8347 8.96016 56.962 8.95107 57.1256 8.93288C57.3075 8.91469 57.4894 8.9056 57.6712 8.9056C58.6351 8.9056 59.5081 9.15112 60.2901 9.64216C61.0722 10.115 61.7451 11.0062 62.3088 12.3156L64.764 18.1808L68.5832 9.1784H69.9472L64.3548 22.2728H63.8092L59.5808 12.3156ZM74.0957 22.2728C73.5137 22.2728 72.9227 22.1546 72.3225 21.9182C71.7224 21.6635 71.204 21.2543 70.7676 20.6906C70.3493 20.1268 70.1401 19.3811 70.1401 18.4536C70.1401 17.0714 70.7767 16.0893 72.0497 15.5074C73.341 14.9254 75.0232 14.6344 77.0965 14.6344H77.9149C77.9149 12.8521 77.6694 11.6336 77.1784 10.9789C76.6873 10.3242 75.978 9.9968 75.0505 9.9968C74.2321 9.9968 73.5774 10.1696 73.0864 10.5151C72.5953 10.8607 72.2498 11.4608 72.0497 12.3156H70.8221C70.8221 11.6973 70.8585 11.2153 70.9312 10.8698C71.004 10.506 71.1949 10.1696 71.5041 9.8604C71.8315 9.53304 72.368 9.29661 73.1136 9.15112C73.8775 8.98744 74.705 8.9056 75.5961 8.9056C77.0692 8.9056 78.2332 9.30571 79.088 10.1059C79.9427 10.8879 80.3701 12.3974 80.3701 14.6344V22H79.0061L78.0513 20.7724H77.9149C77.5876 21.1907 77.1056 21.5453 76.4691 21.8363C75.8325 22.1273 75.0414 22.2728 74.0957 22.2728ZM75.3233 21.0452C75.9235 21.0452 76.4236 20.8997 76.8237 20.6087C77.2238 20.3177 77.5876 19.9176 77.9149 19.4084V15.7256H77.0965C75.7507 15.7256 74.6868 15.9802 73.9048 16.4894C73.1227 16.9805 72.7317 17.6352 72.7317 18.4536C72.7317 19.2902 72.9772 19.9358 73.4683 20.3905C73.9775 20.827 74.5959 21.0452 75.3233 21.0452ZM83.0284 12.452C83.0284 11.5245 82.9011 10.8425 82.6465 10.406C82.3919 9.95133 81.8827 9.724 81.1188 9.724H80.846V9.1784H83.0284C83.7195 9.1784 84.2378 9.27843 84.5834 9.47848C84.9471 9.66035 85.2017 9.96952 85.3472 10.406H85.4836C85.811 9.98771 86.2475 9.63307 86.7931 9.34208C87.3569 9.05109 88.0116 8.9056 88.7572 8.9056C89.4847 8.9056 90.0303 9.042 90.394 9.3148C90.7032 9.55123 91.0215 9.96043 91.3488 10.5424L90.2576 11.3608C90.0576 11.088 89.7666 10.8879 89.3847 10.7606C89.0028 10.6151 88.5663 10.5424 88.0752 10.5424C87.5296 10.5424 87.0295 10.6697 86.5748 10.9243C86.1202 11.1607 85.7564 11.4881 85.4836 11.9064V22H83.0284V12.452ZM95.3443 22.2728C94.7623 22.2728 94.1712 22.1546 93.5711 21.9182C92.9709 21.6635 92.4526 21.2543 92.0161 20.6906C91.5978 20.1268 91.3887 19.3811 91.3887 18.4536C91.3887 17.0714 92.0252 16.0893 93.2983 15.5074C94.5895 14.9254 96.2718 14.6344 98.3451 14.6344H99.1635C99.1635 12.8521 98.918 11.6336 98.4269 10.9789C97.9359 10.3242 97.2266 9.9968 96.2991 9.9968C95.4807 9.9968 94.826 10.1696 94.3349 10.5151C93.8439 10.8607 93.4983 11.4608 93.2983 12.3156H92.0707C92.0707 11.6973 92.1071 11.2153 92.1798 10.8698C92.2526 10.506 92.4435 10.1696 92.7527 9.8604C93.08 9.53304 93.6166 9.29661 94.3622 9.15112C95.126 8.98744 95.9535 8.9056 96.8447 8.9056C98.3178 8.9056 99.4818 9.30571 100.337 10.1059C101.191 10.8879 101.619 12.3974 101.619 14.6344V22H100.255L99.2999 20.7724H99.1635C98.8361 21.1907 98.3542 21.5453 97.7176 21.8363C97.0811 22.1273 96.29 22.2728 95.3443 22.2728ZM96.5719 21.0452C97.172 21.0452 97.6722 20.8997 98.0723 20.6087C98.4724 20.3177 98.8361 19.9176 99.1635 19.4084V15.7256H98.3451C96.9993 15.7256 95.9354 15.9802 95.1533 16.4894C94.3713 16.9805 93.9803 17.6352 93.9803 18.4536C93.9803 19.2902 94.2258 19.9358 94.7168 20.3905C95.2261 20.827 95.8444 21.0452 96.5719 21.0452Z" fill="white"/>
</svg>
