<svg width="91" height="22" viewBox="0 0 91 22" fill="none" xmlns="http://www.w3.org/2000/svg">
<path d="M12.8343 18.1938H3.2141V11.8919H11.8026V9.21499H3.2141V3.52653H12.6391V0.849609H0.14679V20.8708H12.8343V18.1938Z" fill="#21130B" fill-opacity="0.63"/>
<path d="M15.9988 20.8708L19.9026 14.9871L23.8622 20.8708H27.0968L21.9103 13.3977L26.7622 6.09192H23.7228L20.0699 11.6688L16.417 6.09192H13.1545L18.0622 13.314L12.8199 20.8708H15.9988Z" fill="#21130B" fill-opacity="0.63"/>
<path d="M35.4254 20.8708C41.6158 20.8708 45.7427 16.5765 45.7427 10.7486C45.7427 4.92076 41.7552 0.849609 35.4254 0.849609H27.6177V20.8708H35.4254ZM32.8879 5.3948H35.1187C38.5485 5.3948 40.3331 7.2073 40.3331 10.7486C40.3331 14.5131 38.6042 16.3256 35.1187 16.3256H32.8879V5.3948Z" fill="#21130B" fill-opacity="0.63"/>
<path d="M53.231 21.1496C57.6647 21.1496 61.0666 17.664 61.0666 13.3698C61.0666 9.07557 57.6647 5.58999 53.231 5.58999C48.7974 5.58999 45.3955 9.07557 45.3955 13.3698C45.3955 17.664 48.7974 21.1496 53.231 21.1496ZM53.231 16.8833C51.7531 16.8833 50.3589 15.7121 50.3589 13.3698C50.3589 11.0275 51.7531 9.88422 53.231 9.88422C54.7089 9.88422 56.1031 11.0275 56.1031 13.3698C56.1031 15.7121 54.7089 16.8833 53.231 16.8833Z" fill="#21130B" fill-opacity="0.63"/>
<path d="M66.2795 12.9794C66.2795 10.7208 67.3391 9.88422 68.5103 9.88422C69.9603 9.88422 70.6295 10.916 70.6295 12.8121V20.8708H75.3978V11.2227C75.3978 7.5698 73.3064 5.58999 70.3507 5.58999C68.4545 5.58999 67.0603 6.37076 65.8891 7.68134V5.86884H61.5112V20.8708H66.2795V12.9794Z" fill="#21130B" fill-opacity="0.63"/>
<path d="M83.4277 21.1217C87.1642 21.1217 89.8132 19.1977 90.7334 15.7679H85.9652C85.5469 16.8554 84.6546 17.4131 83.3161 17.4131C81.7825 17.4131 80.8902 16.465 80.6392 14.5688H90.8171C91.6815 9.63326 88.3632 5.58999 83.3998 5.58999C78.9382 5.58999 75.7036 8.85249 75.7036 13.3419C75.7036 17.9986 78.7988 21.1217 83.4277 21.1217ZM83.2882 9.10346C84.7104 9.10346 85.6584 10.0794 85.7142 11.5852H80.695C81.0296 9.91211 81.8661 9.10346 83.2882 9.10346Z" fill="#21130B" fill-opacity="0.63"/>
</svg>
