<svg width="122" height="30" viewBox="0 0 122 30" fill="none" xmlns="http://www.w3.org/2000/svg">
<path fill-rule="evenodd" clip-rule="evenodd" d="M8.494 12.7164C8.494 15.5575 10.1963 18.001 12.6365 19.0825C14.1008 19.7315 15.454 20.9748 15.454 22.5764L15.454 24.3164C9.0475 24.3164 3.854 19.1229 3.854 12.7164C3.854 6.3099 9.0475 1.11641 15.454 1.11641L15.454 5.75641C11.6101 5.75641 8.494 8.87251 8.494 12.7164Z" fill="#21130B" fill-opacity="0.63"/>
<path fill-rule="evenodd" clip-rule="evenodd" d="M22.414 17.2836C22.414 14.4425 20.7117 11.999 18.2715 10.9175C16.8072 10.2685 15.454 9.02522 15.454 7.42359L15.454 5.68359C21.8605 5.68359 27.054 10.8771 27.054 17.2836C27.054 23.6901 21.8605 28.8836 15.454 28.8836L15.454 24.2436C19.2979 24.2436 22.414 21.1275 22.414 17.2836Z" fill="#21130B" fill-opacity="0.63"/>
<path d="M35.957 9.52912C35.957 11.8027 37.2765 13.244 39.7937 13.7921L42.1485 14.3199C43.3665 14.5838 43.874 15.1725 43.874 16.1672C43.874 17.4055 42.7778 18.1566 41.0523 18.1566C39.3877 18.1566 38.3727 17.4055 38.3524 16.1469H35.754C35.8149 18.8062 37.8855 20.4911 41.0523 20.4911C44.3206 20.4911 46.4724 18.7047 46.4724 15.9439C46.4724 13.7312 45.2341 12.432 42.6966 11.8839L40.3621 11.3764C39.1238 11.0922 38.5554 10.5035 38.5554 9.44792C38.5554 8.20962 39.5907 7.43822 41.1944 7.43822C42.656 7.43822 43.5695 8.18932 43.6304 9.46822H46.2288C46.1476 6.78862 44.2394 5.12402 41.235 5.12402C38.1088 5.12402 35.957 6.93072 35.957 9.52912Z" fill="#21130B" fill-opacity="0.63"/>
<path d="M49.5046 20.2272V5.12402H47.0483V20.2272H49.5046Z" fill="#21130B" fill-opacity="0.63"/>
<path d="M53.6366 20.4911C55.1997 20.4911 56.5598 19.7806 56.9861 18.7453L57.1688 20.2272H59.3409V14.1372C59.3409 11.3561 57.6763 9.89452 54.9764 9.89452C52.2562 9.89452 50.4698 11.3155 50.4698 13.4876H52.581C52.581 12.432 53.393 11.823 54.8546 11.823C56.1132 11.823 56.9252 12.3711 56.9252 13.7312V13.9545L53.9208 14.1778C51.5457 14.3605 50.2059 15.5176 50.2059 17.3649C50.2059 19.2528 51.5051 20.4911 53.6366 20.4911ZM54.4486 18.6235C53.3321 18.6235 52.7231 18.1769 52.7231 17.2634C52.7231 16.4514 53.3118 15.9439 54.8546 15.8018L56.9455 15.6394V16.1672C56.9455 17.71 55.9711 18.6235 54.4486 18.6235Z" fill="#21130B" fill-opacity="0.63"/>
<path d="M62.6178 20.2272L62.7802 18.6641C63.3689 19.8212 64.6478 20.4911 66.15 20.4911C69.0326 20.4911 70.9205 18.3596 70.9205 15.274C70.9205 12.1072 69.1747 9.87422 66.3124 9.87422C64.7899 9.87422 63.4501 10.5441 62.8005 11.6606V5.12402H60.3239V20.2272H62.6178ZM62.8208 15.1725C62.8208 13.3658 63.9373 12.1072 65.6425 12.1072C67.3883 12.1072 68.4236 13.3861 68.4236 15.1725C68.4236 16.9589 67.3883 18.2175 65.6425 18.2175C63.9373 18.2175 62.8208 16.9792 62.8208 15.1725Z" fill="#21130B" fill-opacity="0.63"/>
<path d="M70.9553 9.52912C70.9553 11.8027 72.2748 13.244 74.792 13.7921L77.1468 14.3199C78.3648 14.5838 78.8723 15.1725 78.8723 16.1672C78.8723 17.4055 77.7761 18.1566 76.0506 18.1566C74.386 18.1566 73.371 17.4055 73.3507 16.1469H70.7523C70.8132 18.8062 72.8838 20.4911 76.0506 20.4911C79.3189 20.4911 81.4707 18.7047 81.4707 15.9439C81.4707 13.7312 80.2324 12.432 77.6949 11.8839L75.3604 11.3764C74.1221 11.0922 73.5537 10.5035 73.5537 9.44792C73.5537 8.20962 74.589 7.43822 76.1927 7.43822C77.6543 7.43822 78.5678 8.18932 78.6287 9.46822H81.2271C81.1459 6.78862 79.2377 5.12402 76.2333 5.12402C73.1071 5.12402 70.9553 6.93072 70.9553 9.52912Z" fill="#21130B" fill-opacity="0.63"/>
<path d="M82.0059 24.8759H84.4825V18.8874C85.1118 19.9024 86.411 20.4911 87.9132 20.4911C90.8973 20.4911 92.6026 18.2175 92.6026 15.0913C92.6026 11.9448 90.7349 9.89452 87.9132 9.89452C86.3907 9.89452 85.0712 10.5644 84.4622 11.7215L84.2998 10.199H82.0059V24.8759ZM84.5028 15.2131C84.5028 13.4064 85.6193 12.1478 87.3245 12.1478C89.0703 12.1478 90.1056 13.4267 90.1056 15.2131C90.1056 16.9995 89.0703 18.2581 87.3245 18.2581C85.6193 18.2581 84.5028 17.0198 84.5028 15.2131Z" fill="#21130B" fill-opacity="0.63"/>
<path d="M96.1086 20.4911C97.6717 20.4911 99.0318 19.7806 99.4581 18.7453L99.6408 20.2272H101.813V14.1372C101.813 11.3561 100.148 9.89452 97.4484 9.89452C94.7282 9.89452 92.9418 11.3155 92.9418 13.4876H95.053C95.053 12.432 95.865 11.823 97.3266 11.823C98.5852 11.823 99.3972 12.3711 99.3972 13.7312V13.9545L96.3928 14.1778C94.0177 14.3605 92.6779 15.5176 92.6779 17.3649C92.6779 19.2528 93.9771 20.4911 96.1086 20.4911ZM96.9206 18.6235C95.8041 18.6235 95.1951 18.1769 95.1951 17.2634C95.1951 16.4514 95.7838 15.9439 97.3266 15.8018L99.4175 15.6394V16.1672C99.4175 17.71 98.4431 18.6235 96.9206 18.6235Z" fill="#21130B" fill-opacity="0.63"/>
<path d="M102.207 15.1928C102.207 18.3799 104.197 20.4911 107.242 20.4911C109.86 20.4911 111.809 18.8874 112.114 16.5529H109.617C109.353 17.6491 108.48 18.2581 107.242 18.2581C105.658 18.2581 104.684 17.0807 104.684 15.1928C104.684 13.3049 105.739 12.1072 107.323 12.1072C108.5 12.1072 109.332 12.6959 109.617 13.8327H112.093C111.829 11.417 109.962 9.89452 107.221 9.89452C104.257 9.89452 102.207 12.0869 102.207 15.1928Z" fill="#21130B" fill-opacity="0.63"/>
<path d="M116.993 20.4911C119.612 20.4911 121.439 19.1716 121.865 16.9792H119.571C119.287 17.9333 118.394 18.4611 117.034 18.4611C115.39 18.4611 114.456 17.5679 114.273 15.8018L121.825 15.7815V15.0304C121.825 11.9042 119.916 9.89452 116.912 9.89452C113.969 9.89452 111.918 12.0666 111.918 15.2131C111.918 18.319 114.009 20.4911 116.993 20.4911ZM116.932 11.9245C118.414 11.9245 119.368 12.838 119.368 14.2184H114.334C114.578 12.7162 115.471 11.9245 116.932 11.9245Z" fill="#21130B" fill-opacity="0.63"/>
</svg>
